<svg width="429" height="96.32" viewBox="0 0 369.89 83.05" xmlns="http://www.w3.org/2000/svg">
  <defs>
    <linearGradient id="gradient1">
      <stop stop-color="#00ff8f" offset="0"/>
      <stop stop-color="#00a1ff" offset="1"/>
    </linearGradient>
  </defs>
  <g transform="matrix(0.3177,0,0,0.3177,-2.088,-8.132)" fill="url(#gradient1)">
    <path d="M36.2,127.7l128.4,0.4c3.5,0,6.7-1.9,8.5-4.9l17.7-30.4c1.5-2.6-0.4-5.9-3.4-5.9L58.2,86.5c-3.5,0-6.7,1.9-8.5,4.9L7.9,163.3c-1.7,3-1.8,6.8-0.1,9.8l64.2,112c1.5,2.6,5.3,2.6,6.8,0l17.7-30.4c1.7-3,1.8-6.8,0.1-9.8L32.8,133.6C31.3,131,33.2,127.7,36.2,127.7z"/>
    <path d="M224.9,73.2l-64.6,110.9c-1.7,3-1.8,6.8-0.1,9.8l17.5,30.5c1.5,2.6,5.3,2.6,6.8,0l65.1-111.7c1.7-3,1.8-6.8,0.1-9.8l-41.3-72.1c-1.7-3-5-5-8.5-4.9L70.7,25.6c-3,0-4.9,3.3-3.4,5.9L84.7,62c1.7,3,5,5,8.5,4.9l128.4,0.4C224.6,67.4,226.4,70.7,224.9,73.2z"/>
    <path d="M292.6,148.2l-35.2-0.1c-3.5,0-6.7,1.9-8.5,4.9l-64.6,110.9c-1.5,2.6-5.3,2.6-6.8,0l-63.7-111.2c-1.7-3-5-5-8.5-4.9l-35.2-0.1c-3,0-4.9,3.3-3.4,5.9l64.2,112c1.7,3,5,5,8.5,4.9l83.2,0.2c3.5,0,6.7-1.9,8.5-4.9L296,154.1C297.5,151.5,295.6,148.3,292.6,148.2z"/>
  </g>
</svg>